<svg xmlns="http://www.w3.org/2000/svg" viewBox="0 0 512 512">
  <path fill="#3BB33B" d="M256 32c-12.3 0-24.5 1.1-36.4 3.2-14.1 2.5-27.8 6.4-40.8 11.5-12.1 4.7-23.4 10.6-33.8 17.5-10.4 6.9-19.7 14.9-27.8 23.8-8.1 8.9-14.9 18.7-20.2 29.3-5.3 10.6-9.2 21.9-11.5 33.8-2.3 11.9-3.4 24.3-3.4 36.9 0 12.6 1.1 25 3.4 36.9 2.3 11.9 6.2 23.2 11.5 33.8 5.3 10.6 12.1 20.4 20.2 29.3 8.1 8.9 17.4 16.9 27.8 23.8 10.4 6.9 21.7 12.8 33.8 17.5 13 5.1 26.7 9 40.8 11.5 11.9 2.1 24.1 3.2 36.4 3.2s24.5-1.1 36.4-3.2c14.1-2.5 27.8-6.4 40.8-11.5 12.1-4.7 23.4-10.6 33.8-17.5 10.4-6.9 19.7-14.9 27.8-23.8 8.1-8.9 14.9-18.7 20.2-29.3 5.3-10.6 9.2-21.9 11.5-33.8 2.3-11.9 3.4-24.3 3.4-36.9 0-12.6-1.1-25-3.4-36.9-2.3-11.9-6.2-23.2-11.5-33.8-5.3-10.6-12.1-20.4-20.2-29.3-8.1-8.9-17.4-16.9-27.8-23.8-10.4-6.9-21.7-12.8-33.8-17.5-13-5.1-26.7-9-40.8-11.5-11.9-2.1-24.1-3.2-36.4-3.2z"/>
</svg>
