<svg xmlns="http://www.w3.org/2000/svg" viewBox="0 0 512 512">
  <!-- Luffy Cute Cartoon Head -->
  <!-- Straw Hat Base -->
  <circle cx="256" cy="240" r="180" fill="#F3C01A" stroke="#2d2a24" stroke-width="8"/>
  <!-- Red Band -->
  <path d="M80 260c0-20 40-40 176-40s176 20 176 40-40 40-176 40-176-20-176-40z" fill="#DC2626" stroke="#2d2a24" stroke-width="6"/>
  <!-- Top of Hat -->
  <path d="M176 230c0-60 40-100 80-100s80 40 80 100" fill="#F3C01A" stroke="#2d2a24" stroke-width="8"/>
  
  <!-- Face -->
  <path d="M190 280c0 60 30 100 66 100s66-40 66-100" fill="#FFDBAC" stroke="#2d2a24" stroke-width="6"/>
  
  <!-- Hair (Simple black tufts) -->
  <path d="M185 270l-10 15M327 270l10 15M256 260l0 10" stroke="#2d2a24" stroke-width="8" stroke-linecap="round"/>
  
  <!-- Eyes -->
  <circle cx="230" cy="310" r="8" fill="#2d2a24"/>
  <circle cx="282" cy="310" r="8" fill="#2d2a24"/>
  
  <!-- Smile -->
  <path d="M225 345c10 10 40 10 62 0" fill="none" stroke="#2d2a24" stroke-width="6" stroke-linecap="round"/>
</svg>